<?xml version="1.0" encoding="UTF-8" standalone="no"?>
<!DOCTYPE svg PUBLIC "-//W3C//DTD SVG 1.1//EN"
 "http://www.w3.org/Graphics/SVG/1.1/DTD/svg11.dtd">
<!-- Generated by graphviz version 2.40.1 (20161225.0304)
 -->
<!-- Title: G Pages: 1 -->
<svg width="118pt" height="130pt"
 viewBox="0.00 0.00 118.21 130.00" xmlns="http://www.w3.org/2000/svg" xmlns:xlink="http://www.w3.org/1999/xlink">
<g id="graph0" class="graph" transform="scale(1 1) rotate(0) translate(4 126)">
<title>G</title>
<polygon fill="#ffffff" stroke="transparent" points="-4,4 -4,-126 114.2075,-126 114.2075,4 -4,4"/>
<g id="clust1" class="cluster">
<title>cluster_Global</title>
<path fill="none" stroke="#c0c0c0" d="M20,-8C20,-8 90.2075,-8 90.2075,-8 96.2075,-8 102.2075,-14 102.2075,-20 102.2075,-20 102.2075,-102 102.2075,-102 102.2075,-108 96.2075,-114 90.2075,-114 90.2075,-114 20,-114 20,-114 14,-114 8,-108 8,-102 8,-102 8,-20 8,-20 8,-14 14,-8 20,-8"/>
<text text-anchor="middle" x="55.1038" y="-101.2" font-family="Times,serif" font-size="11.00" fill="#c0c0c0">Global</text>
</g>
<g id="clust2" class="cluster">
<title>cluster_\spfalz</title>
<path fill="none" stroke="#c0c0c0" d="M28,-16C28,-16 82.2075,-16 82.2075,-16 88.2075,-16 94.2075,-22 94.2075,-28 94.2075,-28 94.2075,-75 94.2075,-75 94.2075,-81 88.2075,-87 82.2075,-87 82.2075,-87 28,-87 28,-87 22,-87 16,-81 16,-75 16,-75 16,-28 16,-28 16,-22 22,-16 28,-16"/>
<text text-anchor="middle" x="55.1038" y="-74.2" font-family="Times,serif" font-size="11.00" fill="#c0c0c0">spfalz</text>
</g>
<!-- \\spfalz\\db_oci8 -->
<g id="node1" class="node">
<title>\\spfalz\\db_oci8</title>
<polygon fill="none" stroke="#000000" points="86.3116,-60 23.8959,-60 23.8959,-24 86.3116,-24 86.3116,-60"/>
<text text-anchor="middle" x="55.1038" y="-38.7" font-family="Courier,monospace" font-size="11.00" fill="#000000">db_oci8</text>
</g>
</g>
</svg>
